<svg xmlns="http://www.w3.org/2000/svg">
<defs>

<!--Inf ani block-->
<g id="bgWhite"><!--510 185-->
<path d="M0,24.46C62.71,1.67,113.62-1.29,149,.4c94.8,4.52,135.55,45.18,224.5,44.06,58.12-.73,105.44-18.9,136.5-34.26V49.67L0,49.46Z" style="fill:#1d1d1d"/>
</g>
<!--\ Inf ani block-->


<g id="inverser"><!--inverser 104.83 27.69-->
<path d="M2.61,27.62H.17V.11H2.61Z"/><path d="M18.54,27.62H16.85L9.5,7.39V27.62H7.2V.11H9L16.24,20V.11h2.3Z"/><path d="M33.67.11,28.91,27.69h-2.3L21.84.11h2.43L27.68,22l.11,1.79q0-.62.12-1.79L31.32.11Z"/><path d="M46,27.62H37V.11h8.93V2.27H39.42V12.54h5.91v2.2H39.42V25.46H46Z"/><path d="M61.54,27.62H59L53.85,12.89l.33-.49h4.36V2.27H52.27V27.62H49.83V.11H59a1.9,1.9,0,0,1,1.41.54A1.9,1.9,0,0,1,61,2.06V12.5q0,2-2.67,2l-.77,0-.74,0Q59.18,21,61.54,27.62Z"/><path d="M75.91,25.67a1.92,1.92,0,0,1-.54,1.41,1.87,1.87,0,0,1-1.4.54H67.06a1.93,1.93,0,0,1-1.42-.54,1.89,1.89,0,0,1-.55-1.41v-7h2.44v6.77h5.94V18.9L65.88,9.72a3.19,3.19,0,0,1-.79-2.09V2.06A1.89,1.89,0,0,1,65.64.65,1.93,1.93,0,0,1,67.06.11H74a1.87,1.87,0,0,1,1.4.54,1.92,1.92,0,0,1,.54,1.41v6.4H73.47V2.27H67.53v5.8l7.63,9.18a3.14,3.14,0,0,1,.76,2.06Z"/><path d="M89.27,27.62h-9V.11h8.93V2.27H82.68V12.54h5.91v2.2H82.68V25.46h6.59Z"/><path d="M104.8,27.62h-2.57L97.11,12.89l.33-.49h4.36V2.27H95.53V27.62H93.09V.11h9.21a1.9,1.9,0,0,1,1.41.54,1.9,1.9,0,0,1,.54,1.41V12.5q0,2-2.67,2l-.77,0-.74,0Q102.44,21,104.8,27.62Z"/>
</g>
<!--icn top-->
<g id="tie"><!--295-->
<path d="M204.46,53.94l8.7-27.84c1.74-5.22,0-12.18-3.48-17.4S201,0,194,0H103.54c-7,0-10.44,3.48-15.66,8.7S82.66,20.88,84.4,26.1l8.7,27.84c4.12,13.76,15.9,24.14,29.23,27.93l-39.68,167c-1.74,3.48,0,7,3.48,8.7l55.68,36.54c1.74,1.74,3.48,1.74,5.22,1.74s3.48,0,5.22-1.74l55.68-36.54c3.48-1.74,3.48-5.22,3.48-8.7L171.78,82C185.91,78.74,197.49,69.29,204.46,53.94ZM154,83.53l8.91,38.07-42.6,42.6,18-80.67ZM113.39,195.21c.19-.14.4-.14.59-.31l53.56-53.56,8.91,38.07-70.53,70.53-4.11-2.85,11.57-51.87ZM147,278.42,120.31,259.9l60.76-60.76,11.22,47.94Zm43.5-257.54-8.7,27.84c-1.74,10.44-12.18,17.4-22.62,17.4H131.38c-10.44,0-19.14-7-22.62-17.4l-8.7-27.84,1.74-1.74h88.75v1.74Z"/>
</g>
<g id="advertising"><!--512-->
<path d="M447,201.91,277.32,32.25a45,45,0,0,0-69.1,57L208,90.42a313.9,313.9,0,0,1-86.12,160.92L44,329.15a45,45,0,0,0,0,63.62l42.41,42.41a45,45,0,0,0,63.62,0l10.6-10.6,74.23,74.23a45,45,0,1,0,63.62-63.62l-31.81-31.81,10.6-10.6a45,45,0,0,0,0-63.62l-7.21-7.21a314,314,0,0,1,118.7-50.7L390,271a45,45,0,0,0,57-5.48h0A45,45,0,0,0,447,201.91ZM128.87,414a15,15,0,0,1-21.21,0L65.24,371.57a15,15,0,0,1,0-21.21l74.22-74.23,63.62,63.62ZM277.32,456.4a15,15,0,0,1-21.21,21.21l-74.23-74.23,21.21-21.21ZM224.3,361c4.51-4.51,11.26-11.41,21.91-20.51l9.9,9.91a15,15,0,0,1,0,21.21l-10.6,10.6Zm.64-41.78L160,254.29a343.41,343.41,0,0,0,73-139.06l131,131A343.39,343.39,0,0,0,224.93,319.19Zm200.83-74.86a15,15,0,0,1-21.21,0L234.9,74.67a15,15,0,1,1,21.21-21.21L425.77,223.12A15,15,0,0,1,425.77,244.33Z"/><path d="M150.07,329.15a15,15,0,0,0-21.21,0l-21.21,21.21a15,15,0,1,0,21.21,21.21l21.21-21.21A15,15,0,0,0,150.07,329.15Z"/><path d="M346.19,0a15,15,0,0,0-15,15V45a15,15,0,1,0,30,0V15A15,15,0,0,0,346.19,0Z"/><path d="M466.16,120h-30a15,15,0,0,0,0,30h30a15,15,0,1,0,0-30Z"/><path d="M446.77,34.38a15,15,0,0,0-21.21,0l-30,30a15,15,0,1,0,21.21,21.21l30-30A15,15,0,0,0,446.77,34.38Z"/>
</g>
<g id="planet"><!--487-->
<path d="M484.68,213.47c-4.5-40.88-19.54-78.23-43.87-111.5C401.62,48.39,349.2,15.63,283.74,4.23,270.69,2,257.35,1.37,244.14,0h-2.62c-12.34,1.35-24.74,2.25-37,4.13C78.67,23.44-12.33,142.61,2.06,269.39c6.86,60.51,32.21,112.12,77.21,153.28,53.5,48.94,117.06,69.92,189.12,63.08,55.3-5.27,103.56-27.57,143.33-66.49C469.48,362.7,493.5,293.56,484.68,213.47ZM433.4,338.07c-6.15-10.73-13.92-25.69-17.39-38.45-5-18.54-17.15-.63-18.16,11.48s-9.08,21.18-25.22,3S353.46,300,348.42,300s-14.12,12.1-12.11,68.6c1.44,40.33,17.35,46.74,27.75,49.66a206.63,206.63,0,0,1-66.39,30C202.52,472.45,105.39,428.59,60,341.46,17.72,260.27,38.32,168.41,81.3,117.84c1.16,9.09,2.29,17.26,3.23,25.46,2.56,22.39.63,44.49-3.94,66.5a32.37,32.37,0,0,0,.63,14.65c.69,2.52,4.49,5.49,7.11,5.74,2.07.2,5.67-3.07,6.51-5.53,1.51-4.4,1.57-9.33,2-14.05.33-3.33.34-6.71.57-11.94,3.41,2.77,5.9,4.44,8,6.52,5.27,5.31,10.6,10.59,15.42,16.3,2.13,2.53,4.32,6.08,4.26,9.13-.13,6.52,2.73,11,6.23,16.09,3.89,5.7,5.64,12.86,8.14,19.46,1,2.77,1.26,5.89,2.51,8.55,2.66,5.7,6.69,9.6,13.61,10,7.28.46,10,3.29,11.05,10.73-1.86.21-3.71.46-5.57.63-8.88.85-13.28,4.92-12.93,13.88.69,17.79,7.11,33.32,20.31,45.68,3.64,3.41,7.5,6.58,11,10.07,8.07,8,10.89,17.34,7,28.35-1.86,5.25-4.41,10.4-5.23,15.83a45.39,45.39,0,0,0,.43,16.9c1.32,5.61.76,17.9,6.55,16.88,10.26-1.8,16.15.22,17-11.27a9.24,9.24,0,0,0-.6-4.48c-3.05-10.78,10.8-41.39,19.11-47a206.4,206.4,0,0,0,20.65-15.24c9.28-8.06,13.43-18.48,9.53-30.61-3.67-11.41.62-19.8,8.6-27.14,8.14-7.49,13.48-16.12,12.92-27.64s-8.1-19.85-17.93-18.67c-4.81.57-9.41,2.87-14.1,4.45-6.87,2.32-13.57,5.57-20.62,6.84-9.88,1.75-16-4.7-20.37-12.54-3.55-6.3-4.71-6.79-10.87-2.86-5.19,3.32-10.38,6.67-15.76,9.67-5.59,3.12-8.63,2-12.94-2.71-2.55-2.76-6.08-4.69-9.35-6.68-2.35-1.44-5.54-1.84-7.43-3.65-2.53-2.45-6.06-6.08-5.7-8.73.42-3.12,4-7,7.17-8.29,5.42-2.2,11.59-2.55,17.4-3.82a59.36,59.36,0,0,0,9.17-2.53c4-1.6,3.84-4.23.77-6.7a20.49,20.49,0,0,0-5.21-2.8c-8.87-3.57-17.78-7-26.64-10.57a36.55,36.55,0,0,1-6.35-3.26c-5.57-3.66-6.24-7.69-1.19-12.15,20-17.6,43.26-22.76,63.92.63,6.4,7.24,10.74,16.27,16.78,23.88a94.1,94.1,0,0,0,16.26,16.25c2.49,1.9,8.09,2.22,10.87.7,4.15-2.27,4.29-7.44,2.21-11.76A59.64,59.64,0,0,0,239,214.32c-11.73-15.12-10.93-44.58,12.06-56.87,7.69-4.12,15.44-8.45,19.11-19.5-4.4,1.19-7.6,2-10.72,2.92-17.45,5.4-5.3-7.61,2.73-9.88,4.88-1.39-4.36-5.12-4.36-5.12.22-.38,6.14-2.07,12.71-4.87,4.53-1.92,9.15-4.09,12.92-7.15,2.44-2,3.38-5.82,5-8.82l-1.22-1.41c-4.61.62-9.22,1.3-13.84,1.82-7.83.88-9.67-.66-10.4-8.56-.5-5.39-6-8.33-11.13-5.57-3.47,1.88-6.48,4.61-9.82,6.77-7.72,5-13.49,3-16.51-5.62-1.8-5.13-4.31-6.1-9-3.23-2.37,1.44-4.35,3.55-6.77,4.9a80.63,80.63,0,0,1-12.23,5.93c-4.14,1.47-9.13,2.53-11.94-2-3-4.88-.38-9.64,3.43-12.7,4.74-3.81,10.21-6.76,15.55-9.75,7.6-4.28,15.65-7.84,23-12.5,5.39-3.44,7.74-9,6-15.65-1.47-5.58-5.21-7.47-10.37-4.91-4.27,2.12-8,5.44-12.39,7.14a20.89,20.89,0,0,1-10.65.64c-1.27-.22-2.62-3.75-2.66-5.79,0-1.18,2.37-3.23,3.89-3.48,10.6-1.65,21.26-3,31.92-4.26a5.77,5.77,0,0,1,4.41,1.84c7,8.89,16.88,13.21,27.22,16.29,8.69,2.58,9.95,1.35,11.14-7.76,11.16-2.63,22.5-7.8,33.73-.72A104.76,104.76,0,0,1,327,60.53c1.31,1.29.51,5.27-.12,7.84-.83,3.45-2.74,6.64-3.62,10.08-1.7,6.68,2.62,11.9,9.52,11.79,2.18,0,4.36-.49,6.55-.6,6.38-.3,8.64,2.14,8.06,8.58-.83,9.13.69,10.22,9.9,8.67,2.65-.45,5.7.76,8.4,1.7,1.61.57,2.85,2.11,4.29,3.19,8.56,6.49,15.11,4.06,17.62-6.56.27-1.16.24-2.39.47-3.56,1-4.76,3.68-6,6.9-2.6,6.81,7.21,13.2,14.82,20.11,22.69-7.42,6.81-7.67,15.08-6,23.19,1.83,9-.55,16.86-4.11,24.8-3.41,7.61-7.16,15.18-9.43,23.14-3.4,12,.46,17.42,12.6,20.06,11.58,2.53,13.48,4.86,13.92,16.18.58,15.45,8.52,26.11,22.07,32.91,3,1.5,6.21,2.64,9.28,3.92C451.83,289.77,445,314.56,433.4,338.07Z"/>
</g>

<!--mobile on main page /4 -->
<g id="mob">
<path d="M40.26,58H17.74A5.74,5.74,0,0,1,12,52.26V5.74A5.74,5.74,0,0,1,17.74,0H40.26A5.74,5.74,0,0,1,46,5.74V52.26A5.74,5.74,0,0,1,40.26,58Z" style="fill:#38454f"/><rect x="15" y="6" width="28" height="43" style="fill:#546a79"/><path d="M18,14a1,1,0,0,0,.71-.29l4-4a1,1,0,0,0-1.41-1.41l-4,4A1,1,0,0,0,18,14Z" style="fill:#78909b"/><path d="M18,19a1,1,0,0,0,.71-.29l2-2a1,1,0,1,0-1.41-1.41l-2,2A1,1,0,0,0,18,19Z" style="fill:#78909b"/><path d="M21.29,13.29A1,1,0,0,0,21,14a1,1,0,1,0,.29-.71Z" style="fill:#78909b"/><path d="M23.29,12.71a1,1,0,0,0,1.41,0l3-3a1,1,0,0,0-1.41-1.41l-3,3A1,1,0,0,0,23.29,12.71Z" style="fill:#78909b"/><path d="M26.29,13.29l-9,9a1,1,0,1,0,1.41,1.41l9-9a1,1,0,0,0-1.41-1.41Z" style="fill:#78909b"/><path d="M28.29,11.29a1,1,0,1,0,1.42,0A1,1,0,0,0,28.29,11.29Z" style="fill:#78909b"/><path d="M32.71,8.29a1,1,0,0,0-1.41,0l-1,1a1,1,0,1,0,1.41,1.41l1-1A1,1,0,0,0,32.71,8.29Z" style="fill:#78909b"/><path d="M32,4H26a1,1,0,0,1,0-2h6a1,1,0,1,1,0,2Z" style="fill:#546a79"/><path d="M41,4H40a1,1,0,0,1,0-2h1a1,1,0,1,1,0,2Z" style="fill:#546a79"/><path d="M37,4H36a1,1,0,0,1,0-2h1a1,1,0,1,1,0,2Z" style="fill:#546a79"/><path d="M31.5,55h-5A1.5,1.5,0,0,1,25,53.5h0A1.5,1.5,0,0,1,26.5,52h5A1.5,1.5,0,0,1,33,53.5h0A1.5,1.5,0,0,1,31.5,55Z" style="fill:#cbd4d8"/>
</g>

<!--icons for ajax form-->
<g id="folder"><!--58 58-->
<path d="M46.32,58H1.57A1.56,1.56,0,0,1,.06,56L10.22,28.16A1.56,1.56,0,0,1,11.73,27H56.49c1,0,1.51,1,1.51,2L47.83,56.84A1.56,1.56,0,0,1,46.32,58Z" style="fill:#efce4a"/><path d="M50.27,18H48v9h4V19.73A1.73,1.73,0,0,0,50.27,18Z" style="fill:#ebba16"/><path d="M4,11H1.73A1.73,1.73,0,0,0,0,12.73V55.46H.2L4,45.12Z" style="fill:#ebba16"/><path d="M10.22,28.16A1.56,1.56,0,0,1,11.73,27H48V0H10V28.76Z" style="fill:#f4efdc"/><path d="M17,16H41a1,1,0,0,0,0-2H17a1,1,0,0,0,0,2Z" style="fill:#cec9ae"/><path d="M17,9H27a1,1,0,0,0,0-2H17a1,1,0,0,0,0,2Z" style="fill:#cec9ae"/><path d="M41,21H17a1,1,0,0,0,0,2H41a1,1,0,0,0,0-2Z" style="fill:#cec9ae"/><polygon points="10 28.76 10 2 7 2 7 36.99 10 28.76" style="fill:#cec9ae"/><polygon points="7 36.99 7 4 4 4 4 45.21 7 36.99" style="fill:#d1bf86"/></g>

<g id="vk"><!--0 0 94 94-->
	<path d="M89,0H5A5,5,0,0,0,0,5V89a5,5,0,0,0,5,5H89a5,5,0,0,0,5-5V5A5,5,0,0,0,89,0ZM74.87,52.94a103.85,103.85,0,0,1,7.57,7.62,21.58,21.58,0,0,1,2.71,3.9c1,2,.1,4.25-1.71,4.37H72.18A8.71,8.71,0,0,1,65,65.9c-1.56-1.58-3-3.28-4.5-4.91a10.61,10.61,0,0,0-2-1.81,2.35,2.35,0,0,0-3.75.91,11.74,11.74,0,0,0-1.19,5.26C53.43,68,52.63,68.7,50,68.82a28.82,28.82,0,0,1-16.11-3.46A35.52,35.52,0,0,1,23,55.21C17.2,47.33,12.75,38.67,8.75,29.77c-.9-2-.24-3.08,2-3.12,3.68-.07,7.35-.06,11,0a3.23,3.23,0,0,1,3.06,2.29,68.38,68.38,0,0,0,7.47,13.84,11.88,11.88,0,0,0,2.82,3.1c1.3.9,2.3.6,2.91-.85a9.42,9.42,0,0,0,.65-2.91A43.51,43.51,0,0,0,38.47,32a4.25,4.25,0,0,0-3.62-3.88c-1.07-.2-.92-.6-.4-1.22a4,4,0,0,1,3.46-1.72H50.64c2,.39,2.45,1.29,2.72,3.31V42.58c0,.78.39,3.1,1.79,3.61,1.12.37,1.87-.53,2.54-1.24a44,44,0,0,0,7.17-11c.86-1.74,1.6-3.55,2.32-5.36a2.73,2.73,0,0,1,2.88-2H82.32a6.69,6.69,0,0,1,1.09.06c2.06.35,2.63,1.24,2,3.26-1,3.16-3,5.8-4.87,8.44-2,2.83-4.22,5.56-6.25,8.4C72.41,49.38,72.56,50.69,74.87,52.94Z"/>
</g>

<g id="fb"><!--0 0 60 60-->
	<path d="M57.38,0h-54A3.35,3.35,0,0,0,0,3.35v54a3.35,3.35,0,0,0,3.35,3.35H32.44V37.21H24.52V28h7.91V21.29c0-7.84,4.79-12.12,11.79-12.12a65.64,65.64,0,0,1,7.07.36v8.2H46.44c-3.81,0-4.54,1.81-4.54,4.46V28H51l-1.19,9.17H41.9V60.73H57.38a3.36,3.36,0,0,0,3.35-3.35v-54A3.35,3.35,0,0,0,57.38,0Z"/>
</g>

<g id="telegram"><!--0 0 300 300-->
	<path d="M5.3,144.65l69.13,25.8,26.76,86a8.14,8.14,0,0,0,12.92,3.89L152.64,229a11.5,11.5,0,0,1,14-.39L236.15,279a8.15,8.15,0,0,0,12.76-4.93L299.82,29.22A8.15,8.15,0,0,0,288.91,20L5.22,129.4A8.15,8.15,0,0,0,5.3,144.65Zm91.57,12.07L232,73.5a2.35,2.35,0,0,1,2.84,3.73L123.31,180.87a23.11,23.11,0,0,0-7.16,13.83l-3.8,28.15a3.49,3.49,0,0,1-6.82.49L90.93,172A13.6,13.6,0,0,1,96.87,156.71Z"/>
</g>

<g id="whatsapp"><!--0 0 512 512-->
	<path d="M256.06,0h-.13C114.78,0,0,114.82,0,256A254.1,254.1,0,0,0,48.74,406l-31.9,95.1,98.4-31.46A253.79,253.79,0,0,0,256.06,512C397.22,512,512,397.15,512,256S397.22,0,256.06,0ZM405,361.5c-6.18,17.44-30.69,31.9-50.24,36.13-13.38,2.85-30.85,5.12-89.66-19.26C189.89,347.2,141.44,270.75,137.66,265.79c-3.62-5-30.4-40.48-30.4-77.22s18.66-54.62,26.18-62.3c6.18-6.3,16.38-9.18,26.18-9.18,3.17,0,6,.16,8.58.29,7.52.32,11.3.77,16.26,12.64,6.18,14.88,21.22,51.62,23,55.39s3.65,8.9,1.09,13.86c-2.4,5.12-4.51,7.39-8.29,11.74s-7.36,7.68-11.14,12.35c-3.46,4.06-7.36,8.42-3,15.94,4.35,7.36,19.39,31.9,41.54,51.62,28.58,25.44,51.74,33.57,60,37,6.18,2.56,13.54,2,18-2.85,5.73-6.18,12.8-16.42,20-26.5,5.12-7.23,11.58-8.13,18.37-5.57,6.91,2.4,43.49,20.48,51,24.22s12.48,5.57,14.3,8.74S411.2,344,405,361.5Z"/>
</g>

<g id="user"><!--0 0 428.97 428.98-->
	<path d="M414.1,373.87,307.86,317.68l-4.91-15.33c-1.47-5.14-3.79-10.27-8.58-11.62-1.52-.43-3.44-3.2-3.69-5.14l-2.84-29.81a9.28,9.28,0,0,1,2.22-6.45c8.14-9.75,12.58-21.05,14.45-34,.94-6.49,4.32-12.48,6.06-18.88l6.81-35.65c.71-4.68.57-8.29-4.66-10.1-1.44-.5-2.7-2.89-2.7-6.48L310.1,77c-1.11-16.28-9.73-28.87-22-37.63-23.35-16.74-65.18-9-51.53-36.28.81-1.61.55-4.4-5.06-2.34-20.94,7.7-76.7,28.06-90.71,38.62C128.31,48.8,120,60.7,118.89,77l.07,67.26c0,3-1.25,6-2.7,6.48-5.23,1.81-5.37,5.42-4.66,10.1l6.81,35.65c1.73,6.4,5.11,12.39,6.06,18.88,1.88,12.92,6.31,24.21,14.45,34a9.29,9.29,0,0,1,2.22,6.45l-2.84,29.81c-.25,1.94-2.17,4.71-3.69,5.14-4.78,1.35-7.11,6.49-8.58,11.62l-4.91,15.33L14.88,373.87a8.37,8.37,0,0,0-4.46,7.4v39.34A8.37,8.37,0,0,0,18.79,429h391.4a8.37,8.37,0,0,0,8.37-8.37V381.26A8.37,8.37,0,0,0,414.1,373.87Z"/>
</g>

<g id="viber"><!--0 0 504 504-->
	<path d="M377.6,0H126C56.8,0,0,56.8,0,126.4V378c0,69.2,56.8,126,126,126H377.6C447.2,504,504,447.2,504,377.6V126.4C504,56.8,447.2,0,377.6,0ZM238.4,103.6c.8-12.4,12.4-8,18.4-8.8,75.2,2.4,140,70,139.2,142.8,0,7.2,2.4,17.6-8.4,17.6-10.4,0-7.6-10.8-8.8-18-10-77.2-46-113.6-124.4-125.6C248,110.8,238,112,238.4,103.6ZM350.8,240.8c-12,1.6-9.6-8.8-10.8-15.6-8-47.2-24.8-64.4-73.2-74.8-7.2-1.6-18.4-.4-16.4-11.2,1.6-10.4,11.6-6.8,19.2-6,48.4,5.6,88,46.8,87.6,92C356.4,230,359.6,239.2,350.8,240.8Zm-30-24.8c0,6.4-.8,12.4-8,13.2-5.2.8-8.4-3.6-9.2-8.8-2-19.2-12.4-30.8-32.4-34-6-.8-11.6-2.8-8.8-10.8,2-5.2,6.8-6,12-6C296,169.2,320.8,194.4,320.8,216Zm76,147.6c-8.4,22.8-36.8,46-61.2,45.6-3.6-.8-10.4-2-16.4-4.4C212,359.6,134,285.2,90,178.8c-14.8-35.6.8-66,38-78a28.68,28.68,0,0,1,20,0c16,5.6,56.4,60.4,57.2,76.4.8,12.4-8,19.2-16.4,24.8-16.4,10.8-16.4,24.4-9.2,40,15.6,34.4,42.4,58.4,77.2,73.6,12.4,5.6,24.8,5.2,33.2-7.6,15.2-22.8,34-21.6,54.4-7.6,10.4,7.2,20.8,14,30.4,21.6C388,332.8,404.8,341.6,396.8,363.6Z"/>
</g>

<g id="phone"><!--0 0 208.83 208.83-->
	<path d="M151,0H57.86A14.14,14.14,0,0,0,43.76,14.1V194.74a14.15,14.15,0,0,0,14.11,14.1H151a14.15,14.15,0,0,0,14.11-14.1V14.11A14.15,14.15,0,0,0,151,0ZM83.69,198.68H71.78a4,4,0,0,1,0-7.95H83.69a4,4,0,0,1,0,7.95Zm20.72,3.11a7.05,7.05,0,1,1,7.05-7.05A7.06,7.06,0,0,1,104.42,201.79Zm32.63-3.11h-11.9a4,4,0,0,1,0-7.95h11.9a4,4,0,0,1,0,7.95Zm18.21-15.94H53.57V9.22H155.27V182.74h0Z"/><path d="M67.56,42.33V116h73.71V42.33Zm70.3,3.42v66.59l-1.25-1.43a10.3,10.3,0,0,0-2.79-2,170.24,170.24,0,0,0-16.6-7.22,2.13,2.13,0,0,1-1.11-.85A30.68,30.68,0,0,1,115,97.62c-.2-.67-.39-1.33-1.13-1.64a.94.94,0,0,1-.38-.72c0-2.49-.53-5.1,1.29-7.24a.58.58,0,0,0,.13-.25c1-2.15,1.16-4.64,2.55-6.67a.32.32,0,0,0,0-.17c.16-1.53.33-3.08.46-4.61a.75.75,0,0,0-.33-.59c-.76-.28-.7-.87-.7-1.49v-9a5.81,5.81,0,0,0-1.85-4.5c-1.51-1.35-3-2.65-4.6-4-.75-.63-.82-1.12-.12-1.81a9.42,9.42,0,0,1,1.07-.79c-.08-.12-.15-.23-.22-.35a7.74,7.74,0,0,0-1.4,0c-1.71.28-3.42.51-5.1.91a21.36,21.36,0,0,0-8.91,3.89c-1.8,1.48-3.2,3.19-3.38,5.6-.1,1.27-.1,2.54-.1,3.81,0,2.08,0,4.14,0,6.19,0,.36-.2.9-.42,1-.85.27-.87.81-.75,1.49.07.49,0,1,.12,1.46.3,1.29.6,2.58,1,3.85a22.3,22.3,0,0,1,1,2.82,9.64,9.64,0,0,0,2.32,5.05,1.48,1.48,0,0,1,.36,1c-.11,1.49-.26,3-.45,4.44a1.14,1.14,0,0,1-.58.77c-1,.2-1.14,1-1.37,1.72-.32,1-.64,2-1,3a1.61,1.61,0,0,1-.73.76c-1.75.76-3.53,1.46-5.29,2.2s-3.78,1.54-5.6,2.4S77.07,108,75.21,109a14.5,14.5,0,0,0-3,2L71,112.39V45.75Z"/><path d="M143.2,143.21H65.63a2.24,2.24,0,0,1,0-4.48H143.2a2.24,2.24,0,1,1,0,4.48Z"/><path d="M143.2,131.27H65.63a2.24,2.24,0,0,1,0-4.48H143.2a2.24,2.24,0,1,1,0,4.48Z"/><path d="M143.2,155.14H65.63a2.24,2.24,0,0,1,0-4.48H143.2a2.24,2.24,0,1,1,0,4.48Z"/>
</g>

<g id="email"><!--0 0 485.21 485.21-->
	<path d="M485.21,363.91a60.11,60.11,0,0,1-7.79,29.17L324.23,221.67,475.77,89.09a60.21,60.21,0,0,1,9.45,32.22v242.6ZM242.61,252.79,453.47,68.29a59.9,59.9,0,0,0-28.91-7.64H60.65a59.68,59.68,0,0,0-28.89,7.64Zm58.79-11.16-48.81,42.73a15.22,15.22,0,0,1-20,0l-48.82-42.74L28.67,415.23a59.92,59.92,0,0,0,32,9.33H424.56a59.92,59.92,0,0,0,32-9.33ZM9.45,89.08A60.22,60.22,0,0,0,0,121.31v242.6a59.92,59.92,0,0,0,7.79,29.17L161,221.64Z"/>
</g>

<g id="topContact"><!--0 0 512 512-->
	<path d="M499.16,170.73,341.26,12.83a43.89,43.89,0,0,0-62,0L32.84,259.26a43.89,43.89,0,0,0,0,62l39.62,39.62L29,404.37A10,10,0,1,0,43.1,418.51L86.6,375l18.12,18.12L2.93,494.92a10,10,0,1,0,14.14,14.14L118.86,407.27l71.88,71.88a43.89,43.89,0,0,0,62,0L499.16,232.72a43.83,43.83,0,0,0,0-62ZM214.47,470.83a23.66,23.66,0,0,1-9.59-5.82L47,307.11a23.83,23.83,0,0,1-6.14-23H214.47ZM178.33,264.07,208,234.42a10,10,0,0,0-14.14-14.14L150,264.07H120.91l90.41-90.41a10,10,0,0,0-14.14-14.14L92.62,264.07H56.31L284.08,36.3V240.23a23.86,23.86,0,0,1-23.83,23.84ZM485,218.58,238.59,465a23.79,23.79,0,0,1-4.12,3.28V284.07h25.77a43.88,43.88,0,0,0,43.83-43.83V214.46H418.7l-57.87,57.87A10,10,0,0,0,375,286.47l72-72h41.33A24,24,0,0,1,485,218.58ZM304.08,194.46V20.83a23.83,23.83,0,0,1,23,6.14L485,184.88a23.7,23.7,0,0,1,5.85,9.59Z"/><path d="M235.79,135.05a10,10,0,1,0,2.93,7.07A10,10,0,0,0,235.79,135.05Z"/><path d="M17.11,430.35a10,10,0,0,0-14.14,0A10,10,0,0,0,10,447.42a10,10,0,0,0,7.07-17.07Z"/><path d="M127,449.5a10,10,0,0,0-14.14,0L67.46,494.91A10,10,0,0,0,81.6,509.06L127,463.64A10,10,0,0,0,127,449.5Z"/>
</g>
<g id="text"><!--0 0 60.73 60.73-->
	<rect x="12.51" y="12.4" width="22.82" height="2.77"/><rect x="12.51" y="21.18" width="34.24" height="2.77"/><path d="M2.13,0V42.85H33.05L49,60.73V42.85H58.6V0Zm53.7,40.08H46.21V53.46L34.29,40.08H4.9V2.77H55.83V40.08Z"/>
</g>

<!--/icons-->


</defs>

</svg>